<?xml version="1.0" encoding="iso-8859-1"?>
<!-- Generator: Adobe Illustrator 19.0.0, SVG Export Plug-In . SVG Version: 6.00 Build 0)  -->
<svg version="1.1" id="Capa_1" xmlns="http://www.w3.org/2000/svg" xmlns:xlink="http://www.w3.org/1999/xlink" x="0px" y="0px"
	 viewBox="0 0 512 512" style="enable-background:new 0 0 512 512;" xml:space="preserve">
<g>
	<g>
		<path d="M211.67,316.199c13.614-13.042,22.116-31.378,22.116-51.675V225.41c6.185-8.131,9.867-18.266,9.867-29.248v-40.899
			c0-5.523-4.477-10-10-10h-82.415c-33.443,0-60.652,27.208-60.652,60.652v58.609c0,20.296,8.503,38.633,22.116,51.675
			c-55.747,1.979-100.489,47.939-100.489,104.16V502c0,5.523,4.477,10,10,10h279.946c5.523,0,10-4.477,10-10v-81.641
			C312.159,364.139,267.417,318.179,211.67,316.199z M151.239,165.264h72.415v30.899c0,15.666-12.745,28.411-28.41,28.411h-84.656
			v-1.317v-17.341h-0.001C110.587,183.5,128.823,165.264,151.239,165.264z M110.587,264.525v-19.952h84.656
			c6.566,0,12.829-1.32,18.543-3.699v23.651c0,28.453-23.147,51.6-51.6,51.6C133.733,316.125,110.587,292.978,110.587,264.525z
			 M202.747,336.125l-39.094,66.26l-39.094-66.26H202.747z M292.16,492h-0.001h-22.506v-69.936c0-5.523-4.477-10-10-10
			s-10,4.477-10,10V492h-172v-69.936c0-5.523-4.477-10-10-10c-5.523,0-10,4.477-10,10V492H32.214v-71.641
			c0-41.546,30.242-76.139,69.862-82.982l52.964,89.769c1.798,3.048,5.074,4.918,8.613,4.918s6.814-1.871,8.613-4.918l52.683-89.29
			c38.314,7.894,67.211,41.888,67.211,82.504V492z"/>
	</g>
</g>
<g>
	<g>
		<path d="M449.786,0h-56.549c-5.523,0-10,4.477-10,10s4.477,10,10,10h56.549c16.542,0,30,13.458,30,30v133.973
			c0,16.542-13.458,30-30,30h-36.455c-2.651,0-5.194,1.053-7.069,2.927l-47.239,47.216v-40.144c0-5.523-4.477-10-10-10h-85.237
			c-5.523,0-10,4.477-10,10s4.477,10,10,10h75.237v54.277c0,4.044,2.436,7.69,6.172,9.238c1.238,0.513,2.537,0.762,3.826,0.762
			c2.602,0,5.159-1.016,7.072-2.928l61.38-61.35h32.314c27.57,0,50-22.43,50-50V50C499.786,22.43,477.357,0,449.786,0z"/>
	</g>
</g>
<g>
	<g>
		<path d="M363.856,2.93c-1.86-1.86-4.44-2.93-7.07-2.93s-5.21,1.07-7.07,2.93c-1.86,1.86-2.93,4.44-2.93,7.07s1.07,5.21,2.93,7.07
			s4.44,2.93,7.07,2.93s5.21-1.07,7.07-2.93s2.93-4.44,2.93-7.07S365.716,4.79,363.856,2.93z"/>
	</g>
</g>
<g>
	<g>
		<path d="M320.236,0h-56.45c-27.57,0-50,22.43-50,50v55.477c0,5.523,4.477,10,10,10s10-4.477,10-10V50c0-16.542,13.458-30,30-30
			h56.45c5.523,0,10-4.477,10-10S325.759,0,320.236,0z"/>
	</g>
</g>
<g>
	<g>
		<path d="M226.153,427.086h-14c-5.523,0-10,4.477-10,10s4.477,10,10,10h14c5.523,0,10-4.477,10-10S231.676,427.086,226.153,427.086
			z"/>
	</g>
</g>
<g>
	<g>
		<path d="M145.586,261.57c-1.86-1.86-4.43-2.93-7.07-2.93c-2.63,0-5.21,1.07-7.07,2.93c-1.86,1.86-2.93,4.44-2.93,7.07
			s1.07,5.21,2.93,7.07c1.86,1.86,4.44,2.93,7.07,2.93c2.64,0,5.21-1.07,7.07-2.93c1.87-1.86,2.93-4.44,2.93-7.07
			S147.456,263.43,145.586,261.57z"/>
	</g>
</g>
<g>
	<g>
		<path d="M192.926,261.57c-1.86-1.86-4.44-2.93-7.07-2.93c-2.64,0-5.21,1.07-7.07,2.93c-1.87,1.86-2.93,4.43-2.93,7.07
			c0,2.63,1.06,5.21,2.93,7.07c1.86,1.86,4.44,2.93,7.07,2.93s5.21-1.07,7.07-2.93s2.93-4.44,2.93-7.07
			S194.786,263.43,192.926,261.57z"/>
	</g>
</g>
<g>
	<g>
		<path d="M393.709,89.494c-1.262-18.304-16.017-33.058-34.321-34.32c-10.376-0.718-20.274,2.787-27.854,9.862
			c-7.473,6.976-11.76,16.84-11.76,27.061c0,5.523,4.477,10,10,10s10-4.477,10-10c0-4.767,1.92-9.186,5.408-12.441
			c3.483-3.251,8.033-4.856,12.831-4.53c8.396,0.579,15.165,7.347,15.744,15.744c0.585,8.485-4.979,15.983-13.231,17.829
			c-8.09,1.811-13.74,8.843-13.74,17.102v20.07c0,5.523,4.477,10,10,10s10-4.477,10-10v-18.129
			C383.704,123.037,394.933,107.258,393.709,89.494z"/>
	</g>
</g>
<g>
	<g>
		<path d="M363.856,171.84c-1.86-1.86-4.44-2.92-7.07-2.92s-5.21,1.06-7.07,2.92c-1.86,1.87-2.93,4.44-2.93,7.08
			c0,2.63,1.07,5.21,2.93,7.07s4.44,2.93,7.07,2.93s5.21-1.07,7.07-2.93s2.93-4.44,2.93-7.07
			C366.786,176.28,365.716,173.71,363.856,171.84z"/>
	</g>
</g>
<g>
</g>
<g>
</g>
<g>
</g>
<g>
</g>
<g>
</g>
<g>
</g>
<g>
</g>
<g>
</g>
<g>
</g>
<g>
</g>
<g>
</g>
<g>
</g>
<g>
</g>
<g>
</g>
<g>
</g>
</svg>
